<svg xmlns="http://www.w3.org/2000/svg" viewBox="0 0 100 100" width="100" height="100">
  <!-- Background circle with gradient -->
  <defs>
    <radialGradient id="bgGradient" cx="50%" cy="50%" r="50%">
      <stop offset="0%" style="stop-color:#ffb6c1;stop-opacity:1" />
      <stop offset="100%" style="stop-color:#ff69b4;stop-opacity:1" />
    </radialGradient>
    <radialGradient id="centerGradient" cx="50%" cy="50%" r="50%">
      <stop offset="0%" style="stop-color:#ffd700;stop-opacity:1" />
      <stop offset="100%" style="stop-color:#ffb347;stop-opacity:1" />
    </radialGradient>
    <linearGradient id="petalGradient" x1="0%" y1="0%" x2="100%" y2="100%">
      <stop offset="0%" style="stop-color:#ff91a4;stop-opacity:1" />
      <stop offset="50%" style="stop-color:#ffb6c1;stop-opacity:1" />
      <stop offset="100%" style="stop-color:#ffc0cb;stop-opacity:1" />
    </linearGradient>
  </defs>
  
  <!-- Background -->
  <circle cx="50" cy="50" r="48" fill="url(#bgGradient)" stroke="#ff1493" stroke-width="2"/>
  
  <!-- Flower petals -->
  <ellipse cx="50" cy="25" rx="8" ry="20" fill="url(#petalGradient)" transform="rotate(0 50 50)"/>
  <ellipse cx="50" cy="25" rx="8" ry="20" fill="url(#petalGradient)" transform="rotate(72 50 50)"/>
  <ellipse cx="50" cy="25" rx="8" ry="20" fill="url(#petalGradient)" transform="rotate(144 50 50)"/>
  <ellipse cx="50" cy="25" rx="8" ry="20" fill="url(#petalGradient)" transform="rotate(216 50 50)"/>
  <ellipse cx="50" cy="25" rx="8" ry="20" fill="url(#petalGradient)" transform="rotate(288 50 50)"/>
  
  <!-- Flower center -->
  <circle cx="50" cy="50" r="12" fill="url(#centerGradient)" stroke="#ff6b35" stroke-width="1"/>
  <circle cx="50" cy="50" r="6" fill="#ff4500" opacity="0.8"/>
  
  <!-- Small decorative dots -->
  <circle cx="45" cy="45" r="1.5" fill="#fff" opacity="0.7"/>
  <circle cx="55" cy="45" r="1.5" fill="#fff" opacity="0.7"/>
  <circle cx="50" cy="55" r="1.5" fill="#fff" opacity="0.7"/>
</svg>
